<?xml version="1.0" standalone="no"?><!DOCTYPE svg PUBLIC "-//W3C//DTD SVG 1.1//EN" "http://www.w3.org/Graphics/SVG/1.1/DTD/svg11.dtd"><svg t="1666601298942" class="icon" viewBox="0 0 1024 1024" version="1.1" xmlns="http://www.w3.org/2000/svg" p-id="2150" xmlns:xlink="http://www.w3.org/1999/xlink" width="200" height="200"><path d="M796.8 793.6h-38.4s0-76.8-83.2-166.4c22.4 54.4 35.2 121.6 38.4 166.4H608c-12.8-25.6-28.8-54.4-57.6-83.2 9.6 25.6 19.2 54.4 25.6 83.2H224c-3.2-12.8-3.2-28.8-3.2-41.6 0-105.6 57.6-198.4 144-249.6h294.4c86.4 51.2 144 140.8 144 249.6 0 12.8-3.2 25.6-6.4 41.6z m-201.6-332.8h-166.4c-22.4 0-41.6-19.2-41.6-41.6v-41.6c0-22.4 19.2-41.6 41.6-41.6h41.6V169.6c0-22.4 19.2-41.6 41.6-41.6 22.4 0 41.6 19.2 41.6 41.6v166.4h41.6c22.4 0 41.6 19.2 41.6 41.6v41.6c0 22.4-19.2 41.6-41.6 41.6z" p-id="2151" fill="#ffffff"></path></svg>