<?xml version="1.0" standalone="no"?><!DOCTYPE svg PUBLIC "-//W3C//DTD SVG 1.1//EN" "http://www.w3.org/Graphics/SVG/1.1/DTD/svg11.dtd"><svg t="1662479294173" class="icon" viewBox="0 0 1024 1024" version="1.1" xmlns="http://www.w3.org/2000/svg" p-id="5578" xmlns:xlink="http://www.w3.org/1999/xlink" width="200" height="200"><path d="M490.382222 895.374222c221.980444 0 403.171556-181.134222 404.992-404.650666A404.821333 404.821333 0 0 0 490.382222 85.504 404.764444 404.764444 0 0 0 85.504 490.382222a404.764444 404.764444 0 0 0 404.935111 404.935111z m0 85.447111A490.211556 490.211556 0 0 1 0 490.439111 490.211556 490.211556 0 0 1 490.382222 0c271.075556 0 490.439111 219.477333 490.439111 491.064889-2.104889 270.677333-221.354667 489.813333-490.382222 489.813333zM277.447111 532.707556h455.452445a42.723556 42.723556 0 0 0 0-85.504H277.390222a42.723556 42.723556 0 0 0 0 85.504z" fill="#000" p-id="5579"></path></svg>