<?xml version="1.0" standalone="no"?><!DOCTYPE svg PUBLIC "-//W3C//DTD SVG 1.1//EN" "http://www.w3.org/Graphics/SVG/1.1/DTD/svg11.dtd"><svg t="1664792686990" class="icon" viewBox="0 0 1182 1024" version="1.1" xmlns="http://www.w3.org/2000/svg" p-id="2680" xmlns:xlink="http://www.w3.org/1999/xlink" width="230.859375" height="200"><path d="M895.83818 229.1378A338.852086 338.852086 0 0 0 567.666245 7.120101c-161.82048 0-296.45512 100.97598-332.379266 236.905183-133.663717 38.513274-226.548673 132.692794-226.548673 243.054362 0 144.343869 161.82048 261.178255 361.183312 261.178255a442.093552 442.093552 0 0 0 244.996208-71.201011 384.16182 384.16182 0 0 0 226.548672 71.201011c183.504425 0 332.379267-116.834387 332.379267-261.178255 1.941846-131.074589-119.423515-237.876106-278.007585-257.941846z" fill="#ffffff" p-id="2681"></path><path d="M316.844501 862.17952m22.978508 0l142.725664 0q22.978508 0 22.978508 22.978508l0 0.323641q0 22.978508-22.978508 22.978508l-142.725664 0q-22.978508 0-22.978508-22.978508l0-0.323641q0-22.978508 22.978508-22.978508Z" fill="#ffffff" p-id="2682"></path><path d="M640.485461 862.17952m22.978509 0l142.725663 0q22.978508 0 22.978509 22.978508l0 0.323641q0 22.978508-22.978509 22.978508l-142.725663 0q-22.978508 0-22.978509-22.978508l0-0.323641q0-22.978508 22.978509-22.978508Z" fill="#ffffff" p-id="2683"></path><path d="M316.844501 977.719343m22.978508 0l142.725664 0q22.978508 0 22.978508 22.978508l0 0.323641q0 22.978508-22.978508 22.978508l-142.725664 0q-22.978508 0-22.978508-22.978508l0-0.323641q0-22.978508 22.978508-22.978508Z" fill="#ffffff" p-id="2684"></path><path d="M640.485461 977.719343m22.978509 0l142.725663 0q22.978508 0 22.978509 22.978508l0 0.323641q0 22.978508-22.978509 22.978508l-142.725663 0q-22.978508 0-22.978509-22.978508l0-0.323641q0-22.978508 22.978509-22.978508Z" fill="#ffffff" p-id="2685"></path></svg>