<?xml version="1.0" standalone="no"?><!DOCTYPE svg PUBLIC "-//W3C//DTD SVG 1.1//EN" "http://www.w3.org/Graphics/SVG/1.1/DTD/svg11.dtd"><svg t="1664792614521" class="icon" viewBox="0 0 1024 1024" version="1.1" xmlns="http://www.w3.org/2000/svg" p-id="4436" xmlns:xlink="http://www.w3.org/1999/xlink" width="200" height="200"><path d="M686.91 70.97c-82.92 0-157.62 35.08-210.1 91.2-28.13-32.39-69.6-52.86-115.88-52.86-84.71 0-153.39 68.68-153.39 153.39 0 1.29 0.01 2.56 0.04 3.85-87.55 17.72-153.45 95.13-153.45 187.91 0 105.89 85.85 191.76 191.74 191.76H686.9c158.84 0 287.62-128.78 287.62-287.62 0.02-158.87-128.77-287.63-287.61-287.63z" fill="#ffffff" p-id="4437"></path><path d="M870.21 136.92c41.21 49.77 65.98 113.64 65.98 183.3 0 158.87-128.78 287.62-287.62 287.62H207.54c-43.17 0-83.01-14.27-115.06-38.34 34.98 46.57 90.68 76.71 153.4 76.71h441.03c158.84 0 287.62-128.78 287.62-287.62 0.01-89.2-40.58-168.89-104.32-221.67z" fill="#ffffff" p-id="4438"></path><path d="M207.53 953c-2.89 0-5.81-0.65-8.57-2.02-9.47-4.72-13.31-16.26-8.58-25.73l115.05-230.1c4.75-9.47 16.26-13.31 25.73-8.57 9.48 4.75 13.31 16.26 8.58 25.73l-115.05 230.1c-3.36 6.71-10.14 10.59-17.16 10.59z" fill="#ffffff" p-id="4439"></path><path d="M322.58 953c-2.89 0-5.81-0.65-8.57-2.02-9.47-4.72-13.31-16.26-8.58-25.73l115.05-230.1c4.75-9.47 16.26-13.31 25.73-8.57 9.48 4.75 13.31 16.26 8.58 25.73l-115.05 230.1c-3.36 6.71-10.14 10.59-17.16 10.59z" fill="#ffffff" p-id="4440"></path><path d="M437.63 953c-2.89 0-5.81-0.65-8.57-2.02-9.47-4.72-13.31-16.26-8.58-25.73l115.05-230.1c4.75-9.47 16.26-13.31 25.73-8.57 9.48 4.75 13.31 16.26 8.58 25.73l-115.05 230.1c-3.36 6.71-10.14 10.59-17.16 10.59z" fill="#ffffff" p-id="4441"></path><path d="M552.68 953c-2.89 0-5.81-0.65-8.57-2.02-9.47-4.72-13.31-16.26-8.58-25.73l115.06-230.1c4.72-9.47 16.24-13.31 25.73-8.57 9.47 4.75 13.31 16.26 8.57 25.73l-115.05 230.1c-3.36 6.71-10.14 10.59-17.16 10.59z" fill="#ffffff" p-id="4442"></path></svg>