<?xml version="1.0" standalone="no"?><!DOCTYPE svg PUBLIC "-//W3C//DTD SVG 1.1//EN" "http://www.w3.org/Graphics/SVG/1.1/DTD/svg11.dtd"><svg t="1664792629982" class="icon" viewBox="0 0 1024 1024" version="1.1" xmlns="http://www.w3.org/2000/svg" p-id="6228" xmlns:xlink="http://www.w3.org/1999/xlink" width="200" height="200"><path d="M276.48 614.4c-84.82816 0-153.6-68.77184-153.6-153.6 0-64.55296 39.81312-119.808 96.22528-142.53056C240.40448 201.3184 342.80448 112.64 465.92 112.64c87.92064 0 165.2736 45.23008 210.08384 113.68448A196.89472 196.89472 0 0 1 696.32 225.28c107.44832 0 194.56 87.11168 194.56 194.56s-87.11168 194.56-194.56 194.56z" fill="#ffffff" p-id="6229"></path><path d="M558.08 655.36a25.6 25.6 0 0 1 25.6 25.6v22.21056l19.2512-11.10016a25.6 25.6 0 1 1 25.6 44.3392L609.28 747.52l19.2512 11.1104a25.6 25.6 0 1 1-25.6 44.3392L583.68 791.8592v22.2208a25.6 25.6 0 1 1-51.2 0v-22.2208l-19.2512 11.1104a25.6 25.6 0 1 1-25.6-44.3392l19.23072-11.12064-19.22048-11.10016a25.6 25.6 0 1 1 25.6-44.3392l19.23072 11.10016L532.48 680.96a25.6 25.6 0 0 1 25.6-25.6zM286.72 737.28a30.72 30.72 0 0 1 30.72 30.72v20.48h20.48a30.72 30.72 0 0 1 0 61.44h-20.48v20.48a30.72 30.72 0 0 1-61.44 0v-20.48h-20.48a30.72 30.72 0 0 1 0-61.44h20.48v-20.48a30.72 30.72 0 0 1 30.72-30.72z" fill="#ffffff" p-id="6230"></path><path d="M291.84 680.96m-25.6 0a25.6 25.6 0 1 0 51.2 0 25.6 25.6 0 1 0-51.2 0Z" fill="#ffffff" p-id="6231"></path><path d="M373.76 721.92m-25.6 0a25.6 25.6 0 1 0 51.2 0 25.6 25.6 0 1 0-51.2 0Z" fill="#ffffff" p-id="6232"></path><path d="M414.72 855.04m-25.6 0a25.6 25.6 0 1 0 51.2 0 25.6 25.6 0 1 0-51.2 0Z" fill="#ffffff" p-id="6233"></path><path d="M680.96 855.04m-25.6 0a25.6 25.6 0 1 0 51.2 0 25.6 25.6 0 1 0-51.2 0Z" fill="#ffffff" p-id="6234"></path><path d="M732.16 680.96m-25.6 0a25.6 25.6 0 1 0 51.2 0 25.6 25.6 0 1 0-51.2 0Z" fill="#ffffff" p-id="6235"></path></svg>