<?xml version="1.0" standalone="no"?><!DOCTYPE svg PUBLIC "-//W3C//DTD SVG 1.1//EN" "http://www.w3.org/Graphics/SVG/1.1/DTD/svg11.dtd"><svg t="1663938224417" class="icon" viewBox="0 0 1024 1024" version="1.1" xmlns="http://www.w3.org/2000/svg" p-id="4947" xmlns:xlink="http://www.w3.org/1999/xlink" width="200" height="200"><path d="M804.1984 599.3984a51.2 51.2 0 0 1-72.3968-72.3968l93.696-93.696A56.32 56.32 0 0 1 921.6 473.1904V870.4a51.2 51.2 0 0 1-102.4 0v-286.0032l-15.0016 15.0016zM204.8 460.8h358.4V153.6a51.2 51.2 0 0 1 102.4 0v716.8a51.2 51.2 0 0 1-102.4 0v-307.2H204.8v307.2a51.2 51.2 0 0 1-102.4 0V153.6a51.2 51.2 0 1 1 102.4 0v307.2z" fill="#000" p-id="4948"></path></svg>