<?xml version="1.0" standalone="no"?><!DOCTYPE svg PUBLIC "-//W3C//DTD SVG 1.1//EN" "http://www.w3.org/Graphics/SVG/1.1/DTD/svg11.dtd"><svg t="1664795732835" class="icon" viewBox="0 0 1024 1024" version="1.1" xmlns="http://www.w3.org/2000/svg" p-id="6502" xmlns:xlink="http://www.w3.org/1999/xlink" width="200" height="200"><path d="M420 960z m0-48z" fill="#ffffff" p-id="6503"></path><path d="M200 240h496a21.28 21.28 0 0 1 24 24 21.28 21.28 0 0 1-24 24h-496a21.28 21.28 0 0 1-24-24 21.28 21.28 0 0 1 24-24zM200 400h496a21.28 21.28 0 0 1 24 24 21.28 21.28 0 0 1-24 24h-496a21.28 21.28 0 0 1-24-24 21.28 21.28 0 0 1 24-24zM200 576h240a21.28 21.28 0 0 1 24 24 21.28 21.28 0 0 1-24 24h-240a24 24 0 0 1 0-48z" fill="#ffffff" p-id="6504"></path><path d="M955.36 932.64l-96-96a160 160 0 1 0-22.56 22.56l96 96a16 16 0 0 0 22.72-22.72zM608 736a128 128 0 1 1 128 128 128 128 0 0 1-128-128z" fill="#ffffff" p-id="6505"></path><path d="M832 128v392a24 24 0 0 1-48 0V128a16 16 0 0 0-16-16H128a16 16 0 0 0-16 16v768a16 16 0 0 0 16 16h392a24 24 0 0 1 0 48H128a64 64 0 0 1-64-64V128a64 64 0 0 1 64-64h640a64 64 0 0 1 64 64z" fill="#ffffff" p-id="6506"></path></svg>