<?xml version="1.0" standalone="no"?><!DOCTYPE svg PUBLIC "-//W3C//DTD SVG 1.1//EN" "http://www.w3.org/Graphics/SVG/1.1/DTD/svg11.dtd"><svg t="1664796186132" class="icon" viewBox="0 0 1434 1024" version="1.1" xmlns="http://www.w3.org/2000/svg" p-id="4419" xmlns:xlink="http://www.w3.org/1999/xlink" width="280.078125" height="200"><path d="M326.144 0c21.1968 0 49.4592 4.5056 87.6544 15.7696l2.048 2.1504c29.9008 30.208 351.5392 355.7376 411.8528 417.8944 0 0 14.336 10.752 41.5744 10.752 13.6192 0 30.5152-2.6624 50.3808-10.752l276.1728-120.1152s51.8144-20.8896 107.2128-20.8896c49.664 0 102.2976 16.896 122.5728 80.896 45.2608 142.0288-113.9712 212.2752-183.7056 240.2304-70.144 27.9552-782.0288 300.1344-782.0288 300.1344s-35.84 15.7696-88.064 15.7696c-70.4512 0-171.1104-28.672-254.976-163.7376l161.8944-88.8832c12.9024 5.9392 25.6 8.9088 38.7072 8.9088 15.36 0 31.5392-4.096 50.3808-11.9808l184.0128-60.2112L275.8656 75.776S239.7184 0 326.144 0zM47.4112 497.9712c20.48 0 49.4592 14.4384 90.5216 57.856 35.84 38.0928 74.0352 64.2048 98.304 85.504l-150.528 83.5584v-0.1024C13.824 618.3936 0 555.8272 0 555.8272s6.5536-57.856 47.4112-57.856z" p-id="4420" fill="#ffffff"></path></svg>