<?xml version="1.0" standalone="no"?><!DOCTYPE svg PUBLIC "-//W3C//DTD SVG 1.1//EN" "http://www.w3.org/Graphics/SVG/1.1/DTD/svg11.dtd"><svg t="1664793623115" class="icon" viewBox="0 0 1024 1024" version="1.1" xmlns="http://www.w3.org/2000/svg" p-id="7026" xmlns:xlink="http://www.w3.org/1999/xlink" width="200" height="200"><path d="M514.688 707.2m-48.96 0a48.96 48.96 0 1 0 97.92 0 48.96 48.96 0 1 0-97.92 0Z" p-id="7027" fill="#ffffff"></path><path d="M398.08 309.952c-32.32 35.136-67.328 138.24 7.936 140.032 41.984 1.024 41.6-25.088 43.712-31.296s6.336-35.648 19.008-47.936 18.88-18.368 38.592-18.368c19.328 0 34.624 5.12 46.144 15.168 11.584 10.112 17.28 22.336 17.28 36.672a54.848 54.848 0 0 1-7.04 28.416c-4.736 7.936-18.304 22.464-40.896 43.584-23.424 22.016-40.64 45.568-51.008 70.528-22.656 54.656 61.056 71.36 77.888 47.104 16.512-23.872 6.912-28.48 46.528-67.968 19.776-18.688 32.192-32.192 37.376-40.32 8.96-13.44 15.296-26.688 19.392-39.616a139.072 139.072 0 0 0-13.056-110.464c-38.912-68.48-160.96-113.472-241.856-25.536z" p-id="7028" fill="#ffffff"></path><path d="M508.544 66.88A448 448 0 0 0 60.992 514.432a448 448 0 0 0 447.552 447.552 448 448 0 0 0 447.552-447.552 448 448 0 0 0-447.552-447.552z m0 831.104a384 384 0 0 1-383.552-383.552 384 384 0 0 1 383.552-383.552 384 384 0 0 1 383.552 383.552 384 384 0 0 1-383.552 383.552z" p-id="7029" fill="#ffffff"></path></svg>