<?xml version="1.0" standalone="no"?><!DOCTYPE svg PUBLIC "-//W3C//DTD SVG 1.1//EN" "http://www.w3.org/Graphics/SVG/1.1/DTD/svg11.dtd"><svg t="1666940586011" class="icon" viewBox="0 0 1024 1024" version="1.1" xmlns="http://www.w3.org/2000/svg" p-id="4009" xmlns:xlink="http://www.w3.org/1999/xlink" width="200" height="200"><path d="M1006.47 965.12c0 21.206-17.193 38.4-38.4 38.4H61.825c-21.207 0-38.4-17.194-38.4-38.4 0-21.207 17.193-38.4 38.4-38.4H968.07c21.208 0 38.401 17.193 38.401 38.4z" p-id="4010" fill="#FBFBFB"></path><path d="M97.974 947.922l-74.55-18.458C44.82 843.04 71.45 735.482 107.72 648.314c44.759-107.568 97.973-167.963 162.685-184.637 36.612-9.43 75.585-4.395 115.843 14.97 39.308 18.908 79.576 50.95 123.106 97.955 63.443 68.504 124.104 96.734 170.826 79.488 66.115-24.406 111.003-135.453 117.144-289.803 6.046-151.99 147.27-227.547 153.278-230.689l35.588 68.058 0.124-0.066c-0.283 0.15-28.505 15.337-56.475 44.318-35.257 36.532-54.023 77.387-55.774 121.43-3.662 92.06-19.422 169.941-46.838 231.482-28.9 64.872-70.55 108.896-120.45 127.317-39.102 14.435-82.837 12.755-126.48-4.858-42.147-17.01-84.975-48.802-127.29-94.494-36.348-39.25-70.01-66.48-100.05-80.93-23.811-11.454-44.544-14.66-63.386-9.807-39.23 10.107-76.557 57.134-110.942 139.77-34.033 81.783-59.883 186.202-80.655 270.104z" p-id="4011" fill="#FBFBFB"></path><path d="M61.825 20.48c21.207 0 38.4 17.193 38.4 38.4v906.24c0 21.206-17.193 38.4-38.4 38.4-21.207 0-38.4-17.194-38.4-38.4l-0.001-906.24c0-21.208 17.194-38.4 38.401-38.4zM935.098 167.562a38.4 38.4 0 1 0 76.8 0 38.4 38.4 0 1 0-76.8 0z" p-id="4012" fill="#FBFBFB"></path></svg>