<?xml version="1.0" standalone="no"?><!DOCTYPE svg PUBLIC "-//W3C//DTD SVG 1.1//EN" "http://www.w3.org/Graphics/SVG/1.1/DTD/svg11.dtd"><svg t="1664961328374" class="icon" viewBox="0 0 1024 1024" version="1.1" xmlns="http://www.w3.org/2000/svg" p-id="2570" xmlns:xlink="http://www.w3.org/1999/xlink" width="200" height="200"><path d="M756.760976 1024H266.24c-88.133932 0-159.843902-71.709971-159.843902-159.843902V159.843902C106.396098 71.709971 178.106068 0 266.24 0h490.520976c88.133932 0 159.843902 71.709971 159.843902 159.843902v704.312196c0 88.133932-71.709971 159.843902-159.843902 159.843902zM266.24 79.921951c-44.066966 0-79.921951 35.854985-79.921951 79.921951v704.312196c0 44.066966 35.854985 79.921951 79.921951 79.921951h490.520976c44.066966 0 79.921951-35.854985 79.921951-79.921951V159.843902c0-44.066966-35.854985-79.921951-79.921951-79.921951H266.24z" fill="#ffffff" p-id="2571"></path><path d="M316.19122 240.764878m-45.955122 0a45.955122 45.955122 0 1 0 91.910243 0 45.955122 45.955122 0 1 0-91.910243 0Z" fill="#ffffff" p-id="2572"></path><path d="M726.790244 281.724878H455.05561c-22.528 0-40.96-18.432-40.96-40.96s18.432-40.96 40.96-40.96h271.734634c22.528 0 40.96 18.432 40.96 40.96s-18.432 40.96-40.96 40.96z" fill="#ffffff" p-id="2573"></path><path d="M316.19122 418.59122m-45.955122 0a45.955122 45.955122 0 1 0 91.910243 0 45.955122 45.955122 0 1 0-91.910243 0Z" fill="#ffffff" p-id="2574"></path><path d="M726.790244 459.55122H455.05561c-22.528 0-40.96-18.432-40.96-40.96s18.432-40.96 40.96-40.96h271.734634c22.528 0 40.96 18.432 40.96 40.96s-18.432 40.96-40.96 40.96z" fill="#ffffff" p-id="2575"></path><path d="M316.19122 596.417561m-45.955122 0a45.955122 45.955122 0 1 0 91.910243 0 45.955122 45.955122 0 1 0-91.910243 0Z" fill="#ffffff" p-id="2576"></path><path d="M726.790244 637.377561H455.05561c-22.528 0-40.96-18.432-40.96-40.96s18.432-40.96 40.96-40.96h271.734634c22.528 0 40.96 18.432 40.96 40.96s-18.432 40.96-40.96 40.96z" fill="#ffffff" p-id="2577"></path><path d="M316.19122 774.243902m-45.955122 0a45.955122 45.955122 0 1 0 91.910243 0 45.955122 45.955122 0 1 0-91.910243 0Z" fill="#ffffff" p-id="2578"></path><path d="M726.790244 815.203902H455.05561c-22.528 0-40.96-18.432-40.96-40.96s18.432-40.96 40.96-40.96h271.734634c22.528 0 40.96 18.432 40.96 40.96s-18.432 40.96-40.96 40.96z" fill="#ffffff" p-id="2579"></path></svg>