<?xml version="1.0" standalone="no"?><!DOCTYPE svg PUBLIC "-//W3C//DTD SVG 1.1//EN" "http://www.w3.org/Graphics/SVG/1.1/DTD/svg11.dtd"><svg t="1664796929482" class="icon" viewBox="0 0 1024 1024" version="1.1" xmlns="http://www.w3.org/2000/svg" p-id="6019" xmlns:xlink="http://www.w3.org/1999/xlink" width="200" height="200"><path d="M256 563.2h512v460.8H256z" p-id="6020" fill="#ffffff"></path><path d="M972.8 204.8h-102.4V51.2a51.2 51.2 0 0 0-51.2-51.2H204.8a51.2 51.2 0 0 0-51.2 51.2v153.6H51.2a51.2 51.2 0 0 0-51.2 51.2v512a51.2 51.2 0 0 0 51.2 51.2h153.6v-102.4H102.4V307.2h819.2v409.6h-102.4v102.4h153.6a51.2 51.2 0 0 0 51.2-51.2V256a51.2 51.2 0 0 0-51.2-51.2zM256 102.4h512v102.4H256z" p-id="6021" fill="#ffffff"></path></svg>