<?xml version="1.0" standalone="no"?><!DOCTYPE svg PUBLIC "-//W3C//DTD SVG 1.1//EN" "http://www.w3.org/Graphics/SVG/1.1/DTD/svg11.dtd"><svg t="1664795292012" class="icon" viewBox="0 0 1024 1024" version="1.1" xmlns="http://www.w3.org/2000/svg" p-id="4777" xmlns:xlink="http://www.w3.org/1999/xlink" width="200" height="200"><path d="M939 822.2L182 90.1c-20.4-19.8-49.4-25.1-75.5-14-26.1 11.1-42.4 35.6-42.4 64v732.1c0 38.3 31.2 69.5 69.5 69.5h756.9c28.9 0 53.6-16.6 64.4-43.4 11-26.9 4.9-56-15.9-76.1z m-17.7 62.4c-5.2 12.9-16.7 20.7-30.7 20.7H781V868c0-10.1-8.1-18.2-18.2-18.2s-18.2 8.1-18.2 18.2v37.3H619V868c0-10.1-8.1-18.2-18.2-18.2s-18.2 8.1-18.2 18.2v37.3H456.9V868c0-10.1-8.1-18.2-18.2-18.2s-18.2 8.1-18.2 18.2v37.3H294.9V868c0-10.1-8.1-18.2-18.2-18.2s-18.2 8.1-18.2 18.2v37.3H133.7c-18.2 0-33.1-14.8-33.1-33.1v-84.8h37.3c10.1 0 18.2-8.1 18.2-18.2S148 751 137.9 751h-37.3V625.3h37.3c10.1 0 18.2-8.1 18.2-18.2s-8.1-18.2-18.2-18.2h-37.3V463.2h37.3c10.1 0 18.2-8.1 18.2-18.2s-8.1-18.2-18.2-18.2h-37.3V301.2h37.3c10.1 0 18.2-8.1 18.2-18.2s-8.1-18.2-18.2-18.2h-37.3V140.1c0-13.7 7.5-25.1 20.2-30.4 4.4-1.9 8.9-2.8 13.3-2.8 8.3 0 16.2 3.2 22.6 9.4l756.9 732.1c10.1 9.7 13 23.2 7.7 36.2z m-615.6-458c-8.3-8-20.5-10.3-31.1-5.7-10.6 4.5-17.4 14.8-17.4 26.3v272c0 15.8 12.8 28.6 28.6 28.6H567c11.7 0 22.1-7 26.5-17.9 4.4-10.9 1.8-23.2-6.6-31.3l-281.2-272z m-12.1 284.8V465.6l254.2 245.8H293.6z" p-id="4778" fill="#ffffff"></path></svg>