<?xml version="1.0" standalone="no"?><!DOCTYPE svg PUBLIC "-//W3C//DTD SVG 1.1//EN" "http://www.w3.org/Graphics/SVG/1.1/DTD/svg11.dtd"><svg t="1664795829460" class="icon" viewBox="0 0 1024 1024" version="1.1" xmlns="http://www.w3.org/2000/svg" p-id="2573" xmlns:xlink="http://www.w3.org/1999/xlink" width="200" height="200"><path d="M341.333 0h-204.8A136.533 136.533 0 0 0 0 136.533v204.8a136.533 136.533 0 0 0 136.533 136.534h204.8a136.533 136.533 0 0 0 136.534-136.534v-204.8A136.533 136.533 0 0 0 341.333 0zM409.6 341.333a68.267 68.267 0 0 1-68.267 68.267h-204.8a68.267 68.267 0 0 1-68.266-68.267v-204.8a68.267 68.267 0 0 1 68.266-68.266h204.8a68.267 68.267 0 0 1 68.267 68.266zM887.467 0h-204.8a136.533 136.533 0 0 0-136.534 136.533v204.8a136.533 136.533 0 0 0 136.534 136.534h204.8A136.533 136.533 0 0 0 1024 341.333v-204.8A136.533 136.533 0 0 0 887.467 0z m68.266 341.333a68.267 68.267 0 0 1-68.266 68.267h-204.8a68.267 68.267 0 0 1-68.267-68.267v-204.8a68.267 68.267 0 0 1 68.267-68.266h204.8a68.267 68.267 0 0 1 68.266 68.266z m-614.4 204.8h-204.8A136.533 136.533 0 0 0 0 682.667v204.8A136.533 136.533 0 0 0 136.533 1024h204.8a136.533 136.533 0 0 0 136.534-136.533v-204.8a136.533 136.533 0 0 0-136.534-136.534zM409.6 887.467a68.267 68.267 0 0 1-68.267 68.266h-204.8a68.267 68.267 0 0 1-68.266-68.266v-204.8a68.267 68.267 0 0 1 68.266-68.267h204.8a68.267 68.267 0 0 1 68.267 68.267z m477.867-341.334h-204.8a136.533 136.533 0 0 0-136.534 136.534v204.8A136.533 136.533 0 0 0 682.667 1024h204.8A136.533 136.533 0 0 0 1024 887.467v-204.8a136.533 136.533 0 0 0-136.533-136.534z m68.266 341.334a68.267 68.267 0 0 1-68.266 68.266h-204.8a68.267 68.267 0 0 1-68.267-68.266v-204.8a68.267 68.267 0 0 1 68.267-68.267h204.8a68.267 68.267 0 0 1 68.266 68.267z" p-id="2574" fill="#ffffff"></path></svg>