<?xml version="1.0" standalone="no"?><!DOCTYPE svg PUBLIC "-//W3C//DTD SVG 1.1//EN" "http://www.w3.org/Graphics/SVG/1.1/DTD/svg11.dtd"><svg t="1665134154554" class="icon" viewBox="0 0 1024 1024" version="1.1" xmlns="http://www.w3.org/2000/svg" p-id="2577" xmlns:xlink="http://www.w3.org/1999/xlink" width="200" height="200"><path d="M608 320h73.984C755.84 206.144 802.304 146.24 832 132.992V96h96v96h-96v-21.984c-21.728 20.544-67.2 80.768-128 174.88V416h-69.44c-27.296 49.408-46.752 87.04-58.336 112.8C498.56 701.44 415.456 736.64 285.056 672H218.56l0.384 0.32c-16.48 18.144-41.28 72.032-72.8 159.68H192v96H96v-96h15.616C144.32 739.904 171.52 680 192 654.624V576h96v61.536c120.704 64 186.496 39.52 259.04-121.856 12.192-27.168 32.512-66.368 60.96-117.76V320zM128 864v32h32v-32H128zM864 128v32h32V128h-32z m-224 224v32h32v-32h-32zM224 608v32h32v-32H224z" p-id="2578" fill="#ffffff"></path></svg>